<svg width="172" height="50" viewBox="0 0 172 50" fill="none" xmlns="http://www.w3.org/2000/svg">
<path d="M78.55 16.45V28.4C78.55 30.25 78.025 31.675 76.975 32.675C75.9417 33.675 74.5417 34.175 72.775 34.175C70.925 34.175 69.4417 33.65 68.325 32.6C67.2083 31.55 66.65 30.0583 66.65 28.125H70.9C70.9 28.8583 71.05 29.4167 71.35 29.8C71.65 30.1667 72.0833 30.35 72.65 30.35C73.1667 30.35 73.5667 30.1833 73.85 29.85C74.1333 29.5167 74.275 29.0333 74.275 28.4V16.45H78.55ZM90.8531 34.2C89.4865 34.2 88.2531 33.9083 87.1531 33.325C86.0698 32.7417 85.2115 31.9083 84.5781 30.825C83.9615 29.7417 83.6531 28.475 83.6531 27.025C83.6531 25.5917 83.9698 24.3333 84.6031 23.25C85.2365 22.15 86.1031 21.3083 87.2031 20.725C88.3031 20.1417 89.5365 19.85 90.9031 19.85C92.2698 19.85 93.5031 20.1417 94.6031 20.725C95.7031 21.3083 96.5698 22.15 97.2031 23.25C97.8365 24.3333 98.1531 25.5917 98.1531 27.025C98.1531 28.4583 97.8281 29.725 97.1781 30.825C96.5448 31.9083 95.6698 32.7417 94.5531 33.325C93.4531 33.9083 92.2198 34.2 90.8531 34.2ZM90.8531 30.5C91.6698 30.5 92.3615 30.2 92.9281 29.6C93.5115 29 93.8031 28.1417 93.8031 27.025C93.8031 25.9083 93.5198 25.05 92.9531 24.45C92.4031 23.85 91.7198 23.55 90.9031 23.55C90.0698 23.55 89.3781 23.85 88.8281 24.45C88.2781 25.0333 88.0031 25.8917 88.0031 27.025C88.0031 28.1417 88.2698 29 88.8031 29.6C89.3531 30.2 90.0365 30.5 90.8531 30.5ZM107.196 22.025C107.596 21.375 108.171 20.85 108.921 20.45C109.671 20.05 110.529 19.85 111.496 19.85C112.646 19.85 113.688 20.1417 114.621 20.725C115.554 21.3083 116.288 22.1417 116.821 23.225C117.371 24.3083 117.646 25.5667 117.646 27C117.646 28.4333 117.371 29.7 116.821 30.8C116.288 31.8833 115.554 32.725 114.621 33.325C113.688 33.9083 112.646 34.2 111.496 34.2C110.513 34.2 109.654 34.0083 108.921 33.625C108.188 33.225 107.613 32.7 107.196 32.05V34H102.921V15.5H107.196V22.025ZM113.296 27C113.296 25.9333 112.996 25.1 112.396 24.5C111.813 23.8833 111.088 23.575 110.221 23.575C109.371 23.575 108.646 23.8833 108.046 24.5C107.463 25.1167 107.171 25.9583 107.171 27.025C107.171 28.0917 107.463 28.9333 108.046 29.55C108.646 30.1667 109.371 30.475 110.221 30.475C111.071 30.475 111.796 30.1667 112.396 29.55C112.996 28.9167 113.296 28.0667 113.296 27ZM126.664 22.025C127.064 21.375 127.639 20.85 128.389 20.45C129.139 20.05 129.997 19.85 130.964 19.85C132.114 19.85 133.156 20.1417 134.089 20.725C135.022 21.3083 135.756 22.1417 136.289 23.225C136.839 24.3083 137.114 25.5667 137.114 27C137.114 28.4333 136.839 29.7 136.289 30.8C135.756 31.8833 135.022 32.725 134.089 33.325C133.156 33.9083 132.114 34.2 130.964 34.2C129.981 34.2 129.122 34.0083 128.389 33.625C127.656 33.225 127.081 32.7 126.664 32.05V34H122.389V15.5H126.664V22.025ZM132.764 27C132.764 25.9333 132.464 25.1 131.864 24.5C131.281 23.8833 130.556 23.575 129.689 23.575C128.839 23.575 128.114 23.8833 127.514 24.5C126.931 25.1167 126.639 25.9583 126.639 27.025C126.639 28.0917 126.931 28.9333 127.514 29.55C128.114 30.1667 128.839 30.475 129.689 30.475C130.539 30.475 131.264 30.1667 131.864 29.55C132.464 28.9167 132.764 28.0667 132.764 27ZM155.007 26.8C155.007 27.2 154.982 27.6167 154.932 28.05H145.257C145.323 28.9167 145.598 29.5833 146.082 30.05C146.582 30.5 147.19 30.725 147.907 30.725C148.973 30.725 149.715 30.275 150.132 29.375H154.682C154.448 30.2917 154.023 31.1167 153.407 31.85C152.807 32.5833 152.048 33.1583 151.132 33.575C150.215 33.9917 149.19 34.2 148.057 34.2C146.69 34.2 145.473 33.9083 144.407 33.325C143.34 32.7417 142.507 31.9083 141.907 30.825C141.307 29.7417 141.007 28.475 141.007 27.025C141.007 25.575 141.298 24.3083 141.882 23.225C142.482 22.1417 143.315 21.3083 144.382 20.725C145.448 20.1417 146.673 19.85 148.057 19.85C149.407 19.85 150.607 20.1333 151.657 20.7C152.707 21.2667 153.523 22.075 154.107 23.125C154.707 24.175 155.007 25.4 155.007 26.8ZM150.632 25.675C150.632 24.9417 150.382 24.3583 149.882 23.925C149.382 23.4917 148.757 23.275 148.007 23.275C147.29 23.275 146.682 23.4833 146.182 23.9C145.698 24.3167 145.398 24.9083 145.282 25.675H150.632ZM164.037 22.375C164.537 21.6083 165.162 21.0083 165.912 20.575C166.662 20.125 167.495 19.9 168.412 19.9V24.425H167.237C166.17 24.425 165.37 24.6583 164.837 25.125C164.304 25.575 164.037 26.375 164.037 27.525V34H159.762V20.05H164.037V22.375Z" fill="#2563EB"/>
<rect width="50" height="50" rx="10" fill="#2563EB"/>
<path d="M26.0039 9.5625H31.8633V29.25C31.8633 31.0599 31.4596 32.6615 30.6523 34.0547C29.8581 35.4349 28.7318 36.5026 27.2734 37.2578C25.8151 38.013 24.168 38.3906 22.332 38.3906C19.3242 38.3906 16.9805 37.6289 15.3008 36.1055C13.6211 34.569 12.7812 32.401 12.7812 29.6016H18.6797C18.6797 30.9948 18.9727 32.0234 19.5586 32.6875C20.1445 33.3516 21.069 33.6836 22.332 33.6836C23.4518 33.6836 24.3438 33.2995 25.0078 32.5312C25.6719 31.763 26.0039 30.6693 26.0039 29.25V9.5625Z" fill="white"/>
</svg>
